<?xml version="1.0" encoding="utf-8"?>
<!-- Generator: Adobe Illustrator 22.1.0, SVG Export Plug-In . SVG Version: 6.00 Build 0)  -->
<svg version="1.1" id="Layer_1" xmlns="http://www.w3.org/2000/svg" xmlns:xlink="http://www.w3.org/1999/xlink" x="0px" y="0px"
	 viewBox="0 0 212.4 212.4" style="enable-background:new 0 0 212.4 212.4;" xml:space="preserve">
<style type="text/css">
	.st0{fill:#020202;}
	.st1{fill:#FFFFFF;}
</style>
<g>
	<path class="st0" d="M212.4,106.1c0.1,58.5-47.2,105.9-106,106.3C48.1,212.8,0.5,165.4,0,106.5C-0.4,48,47.6-0.1,106.2,0
		C164.9,0.1,212.2,47.5,212.4,106.1z M181.3,106.9c-2.2-0.2-2.8-1.6-3.6-2.5c-3.9-4.3-7.7-8.7-11.5-13.1c-1.7-2-4.2-2.4-5.8-1.1
		c-1.8,1.5,0.6,2.8,1.6,3.9c6.7,7.6,13.5,15.1,20.3,22.7c0.9,0.9,1.6,2.5,3.1,1.8c1.2-0.5,0.9-2.1,0.9-3.2c0-7.3,0-14.7,0-22
		c0-1.8,0.3-3.8-2.6-3.7c-3.1,0.1-2.3,2.3-2.3,3.9C181.2,98,181.3,102.4,181.3,106.9z M66.2,108.5c-4.3-4.9-7.6-8.6-10.8-12.4
		c-1.6-1.9-3.2-3.8-5-5.6c-1.5-1.4-3.5-1.2-5.1-0.5c-1.1,0.5-0.4,1.7,0.3,2.5c7.6,8.4,15.1,16.9,22.7,25.2c1.5,1.7,2.8,1.1,2.8-1.1
		c0.1-6,0-12,0-18c0-1.7-0.6-2.5-2.3-2.6c-1.9-0.1-2.7,0.8-2.7,2.7C66.2,101.6,66.2,104.4,66.2,108.5z M25.8,99.8
		C25.8,99.8,25.9,99.8,25.8,99.8c0.1,2.7-0.2,5.4,0.1,8c0.8,6.8,7.1,11.6,13.8,10.8c7.9-1.1,11.3-5.3,10.1-12.7
		c-0.3-2.1-1.5-4.4-3.4-4.3c-2.6,0-1.3,2.7-1.7,4.3c-0.5,2.1,1.3,4.9-1.3,6.4c-2.7,1.5-5.6,2.1-8.6,0.7c-2.9-1.4-4-3.8-3.9-6.9
		c0-4.2,0.1-8.3,0-12.5c0-1.6,0.7-3.8-2.4-3.9c-2.9,0-2.7,1.8-2.7,3.7C25.8,95.4,25.8,97.6,25.8,99.8z M78.7,98.4
		c-0.1,1.5-0.4,3.1,1.9,3.2c2,0.2,3-0.5,3.5-2.6c3.1-14,12.1-21.2,26.3-22.1c1.3-0.1,3,0.2,2.9-1.8c-0.1-1.6-0.5-3-2.9-3.3
		C97.4,70.2,79.6,84.9,78.7,98.4z M108.6,135.6c3.4,0.1,3.9-0.3,4.2-2.7c0.4-3.4-2.2-2.2-3.7-2.4c-13.9-1.4-21.2-7.6-24.7-21.2
		c-0.6-2.2-1.3-3.8-3.9-3.3c-2.9,0.6-1.8,2.8-1.5,4.4C81.5,123.8,94.6,135,108.6,135.6z M101.3,113.1c1.6-3.1,2.7-5.5,3.9-7.8
		c1.1-2.2,0.4-4.2-1.3-5.2c-2.2-1.3-2.6,1.3-3.3,2.6c-2.1,4.1-4,8.3-6.2,12.4c-1.1,2.2-0.7,3,1.8,2.9c4.3-0.1,8.6,0.1,12.9-0.1
		c1.3,0,3.8,1.1,3.6-1.8c-0.2-2.1-1.5-3.1-3.8-3C106.7,113.2,104.4,113.1,101.3,113.1z M108.3,88.6c-1,1.3-2.7,2.7-1.6,4.9
		c4.2,7.9,8.6,15.6,13,23.4c1,1.9,3.1,1.4,4.4,0.8c1.9-0.8,0.4-2.2-0.2-3.3c-4.3-7.8-8.6-15.7-12.9-23.5
		C110.5,90,110.2,88.7,108.3,88.6z M141.5,101.4c-2.6,0-5.3,0-7.9,0c-1.6,0-2.5,0.4-2.6,2.2c-0.1,1.8,0.7,2.9,2.5,2.9
		c5.1,0,10.2,0,15.4,0c1.9,0,2.6-1.1,2.6-2.8c0-2.1-1.4-2.3-3-2.3C146.1,101.5,143.8,101.4,141.5,101.4z M140.8,118
		c2.6,0,5.3-0.1,7.9,0c1.8,0.1,2.8-0.6,2.8-2.5c-0.1-1.6-0.8-2.4-2.5-2.4c-5.3,0-10.6,0-15.9,0c-1.6,0-2.3,1-2.3,2.6
		c0,1.6,0.8,2.4,2.5,2.3C135.8,118,138.3,118,140.8,118z M141.3,89.7c-2.5,0-5,0.1-7.5,0c-1.8-0.1-2.9,0.4-2.9,2.4
		c0.1,1.9,1.1,2.5,2.9,2.5c5-0.1,10,0,15,0c1.9,0,2.7-1,2.6-2.8c-0.1-1.8-1.1-2.2-2.7-2.1C146.3,89.7,143.8,89.7,141.3,89.7z
		 M159.8,109.8C159.8,109.8,159.9,109.8,159.8,109.8c0,2.1,0,4.3,0,6.4c0,1.4,1.1,1.9,2.3,2c1.2,0.1,2.5,0,2.5-1.6
		c0.1-4,0.2-7.9-0.2-11.9c-0.1-1.4-1.5-3.4-3.3-3.1c-2,0.2-1.3,2.3-1.4,3.7C159.8,106.9,159.8,108.4,159.8,109.8z M68.5,85.7
		c-1.7-0.1-2.8,0.4-2.9,2.4c-0.1,2.3,1.2,2.7,3.1,2.7c1.7,0,2.9-0.4,2.9-2.4C71.7,86.2,70.5,85.6,68.5,85.7z"/>
	<path class="st1" d="M181.3,106.9c0-4.5-0.1-8.9,0-13.3c0-1.7-0.8-3.9,2.3-3.9c2.9-0.1,2.6,1.9,2.6,3.7c0,7.3,0,14.7,0,22
		c0,1.1,0.3,2.7-0.9,3.2c-1.5,0.7-2.3-0.8-3.1-1.8c-6.8-7.5-13.6-15.1-20.3-22.7c-0.9-1.1-3.4-2.4-1.6-3.9c1.6-1.3,4.1-0.9,5.8,1.1
		c3.8,4.4,7.6,8.8,11.5,13.1C178.5,105.3,179.1,106.7,181.3,106.9z"/>
	<path class="st1" d="M66.2,108.5c0-4.1,0.1-6.9,0-9.7c-0.1-1.9,0.8-2.8,2.7-2.7c1.6,0.1,2.3,0.9,2.3,2.6c-0.1,6,0.1,12,0,18
		c0,2.2-1.3,2.7-2.8,1.1c-7.6-8.4-15.2-16.8-22.7-25.2c-0.7-0.8-1.4-2-0.3-2.5c1.6-0.7,3.7-1,5.1,0.5c1.8,1.7,3.3,3.7,5,5.6
		C58.6,99.8,61.9,103.6,66.2,108.5z"/>
	<path class="st1" d="M25.8,99.8c0-2.2,0-4.3,0-6.5c0-1.9-0.2-3.7,2.7-3.7c3.1,0,2.3,2.2,2.4,3.9c0.1,4.2,0,8.3,0,12.5
		c0,3.1,1.1,5.5,3.9,6.9c3,1.4,6,0.8,8.6-0.7c2.6-1.5,0.8-4.2,1.3-6.4c0.4-1.6-1-4.3,1.7-4.3c1.9,0,3.1,2.2,3.4,4.3
		c1.2,7.3-2.2,11.6-10.1,12.7c-6.7,0.9-13-3.9-13.8-10.8C25.6,105.1,25.9,102.4,25.8,99.8C25.9,99.8,25.8,99.8,25.8,99.8z"/>
	<path class="st1" d="M78.7,98.4c0.8-13.5,18.6-28.2,31.8-26.5c2.3,0.3,2.7,1.7,2.9,3.3c0.1,2-1.6,1.7-2.9,1.8
		c-14.2,0.9-23.2,8-26.3,22.1c-0.5,2.1-1.5,2.7-3.5,2.6C78.4,101.4,78.7,99.9,78.7,98.4z"/>
	<path class="st1" d="M108.6,135.6c-14-0.6-27.2-11.7-29.7-25.2c-0.3-1.6-1.4-3.8,1.5-4.4c2.6-0.5,3.3,1,3.9,3.3
		c3.5,13.6,10.9,19.8,24.7,21.2c1.5,0.1,4.1-1,3.7,2.4C112.5,135.3,112,135.7,108.6,135.6z"/>
	<path class="st1" d="M101.3,113.1c3.1,0,5.4,0.1,7.7,0c2.2-0.1,3.6,0.9,3.8,3c0.2,3-2.2,1.8-3.6,1.8c-4.3,0.2-8.6,0-12.9,0.1
		c-2.4,0-2.9-0.8-1.8-2.9c2.1-4.1,4-8.3,6.2-12.4c0.7-1.3,1-3.9,3.3-2.6c1.7,1,2.4,3.1,1.3,5.2C104.1,107.6,102.9,110,101.3,113.1z"
		/>
	<path class="st1" d="M108.3,88.6c1.9,0.1,2.2,1.4,2.8,2.3c4.3,7.8,8.6,15.6,12.9,23.5c0.6,1,2.1,2.4,0.2,3.3
		c-1.4,0.6-3.4,1-4.4-0.8c-4.4-7.8-8.8-15.5-13-23.4C105.5,91.4,107.2,89.9,108.3,88.6z"/>
	<path class="st1" d="M141.5,101.4c2.3,0,4.6,0,6.9,0c1.7,0,3,0.2,3,2.3c0,1.7-0.7,2.8-2.6,2.8c-5.1,0-10.2,0-15.4,0
		c-1.8,0-2.6-1-2.5-2.9c0.1-1.7,1.1-2.2,2.6-2.2C136.2,101.5,138.8,101.4,141.5,101.4z"/>
	<path class="st1" d="M140.8,118c-2.5,0-5,0-7.4,0c-1.7,0-2.4-0.7-2.5-2.3c0-1.6,0.6-2.6,2.3-2.6c5.3,0,10.6,0,15.9,0
		c1.6,0,2.4,0.8,2.5,2.4c0.1,1.9-0.9,2.6-2.8,2.5C146.1,118,143.4,118,140.8,118z"/>
	<path class="st1" d="M141.3,89.7c2.5,0,5,0,7.5,0c1.5,0,2.6,0.4,2.7,2.1c0.1,1.8-0.7,2.8-2.6,2.8c-5,0-10,0-15,0
		c-1.8,0-2.9-0.6-2.9-2.5c-0.1-2,1.1-2.5,2.9-2.4C136.3,89.7,138.8,89.7,141.3,89.7z"/>
	<path class="st1" d="M159.8,109.8c0-1.5-0.1-3,0-4.5c0.1-1.4-0.6-3.4,1.4-3.7c1.8-0.2,3.2,1.7,3.3,3.1c0.4,3.9,0.3,7.9,0.2,11.9
		c0,1.6-1.3,1.7-2.5,1.6c-1.3-0.1-2.3-0.6-2.3-2C159.8,114.1,159.9,112,159.8,109.8C159.9,109.8,159.8,109.8,159.8,109.8z"/>
	<path class="st1" d="M68.5,85.7c1.9-0.2,3.1,0.5,3.1,2.7c0,2-1.3,2.3-2.9,2.4c-1.9,0-3.2-0.3-3.1-2.7
		C65.7,86.1,66.8,85.6,68.5,85.7z"/>
</g>
</svg>
